<svg width="40" height="40" viewBox="0 0 40 40" fill="none" xmlns="http://www.w3.org/2000/svg">
<path d="M3.54248 4.2052H6.35208C8.09597 4.2052 9.46846 5.70688 9.32314 7.43462L7.98293 23.5171C7.75687 26.1491 9.83983 28.4097 12.488 28.4097H29.6846C32.0098 28.4097 34.0443 26.5043 34.2219 24.1953L35.0939 12.085C35.2876 9.40457 33.2531 7.2247 30.5565 7.2247H9.71068" stroke="#292929" stroke-width="2.42206" stroke-miterlimit="10" stroke-linecap="round" stroke-linejoin="round"/>
<path d="M26.5521 36.4994C27.6668 36.4994 28.5705 35.5958 28.5705 34.481C28.5705 33.3663 27.6668 32.4626 26.5521 32.4626C25.4374 32.4626 24.5337 33.3663 24.5337 34.481C24.5337 35.5958 25.4374 36.4994 26.5521 36.4994Z" stroke="#292929" stroke-width="2.42206" stroke-miterlimit="10" stroke-linecap="round" stroke-linejoin="round"/>
<path d="M13.6344 36.4994C14.7491 36.4994 15.6527 35.5958 15.6527 34.481C15.6527 33.3663 14.7491 32.4626 13.6344 32.4626C12.5196 32.4626 11.616 33.3663 11.616 34.481C11.616 35.5958 12.5196 36.4994 13.6344 36.4994Z" stroke="#292929" stroke-width="2.42206" stroke-miterlimit="10" stroke-linecap="round" stroke-linejoin="round"/>
<path d="M14.8455 13.8934H34.222" stroke="#292929" stroke-width="2.42206" stroke-miterlimit="10" stroke-linecap="round" stroke-linejoin="round"/>
</svg>
